<?xml version="1.0" encoding="UTF-8"?>
<svg version="1.1" xmlns="http://www.w3.org/2000/svg" width="300" height="300">
<path d="M0 0 C0.80821198 0.00304138 1.61642395 0.00608276 2.4491272 0.00921631 C15.25338893 0.0802923 27.4389845 0.90451448 39.8125 4.4375 C40.5849707 4.65180664 41.35744141 4.86611328 42.15332031 5.08691406 C52.63945144 8.07487428 62.3503908 12.24103794 71.93066406 17.42285156 C73.7530406 18.40544068 75.58950411 19.35598412 77.4296875 20.3046875 C86.0587643 24.93633006 93.09657005 30.55368659 100.32470703 37.10546875 C102.21139613 38.79463444 104.1706266 40.39006072 106.125 42 C110.98095988 46.26452887 114.83287322 51.37252046 118.8125 56.4375 C119.39773438 57.13359375 119.98296875 57.8296875 120.5859375 58.546875 C135.15976277 76.19967744 144.1471039 98.20160193 148.8125 120.4375 C149.08960815 121.73965454 149.08960815 121.73965454 149.37231445 123.06811523 C151.05580389 131.89683096 151.25258667 140.67087394 151.25 149.625 C151.2510675 150.41241577 151.25213501 151.19983154 151.25323486 152.0111084 C151.18222405 188.48115444 138.3893643 222.65180891 114.09375 249.984375 C112.94787181 251.28396856 111.83121081 252.60918859 110.71875 253.9375 C105.67648358 259.88902758 99.98548216 264.68905218 93.8125 269.4375 C92.9359375 270.118125 92.059375 270.79875 91.15625 271.5 C65.12950161 291.09661056 34.09129518 301.1353767 1.625 300.875 C0.81678802 300.87195862 0.00857605 300.86891724 -0.8241272 300.86578369 C-13.62838893 300.7947077 -25.8139845 299.97048552 -38.1875 296.4375 C-38.9599707 296.22319336 -39.73244141 296.00888672 -40.52832031 295.78808594 C-51.01445144 292.80012572 -60.7253908 288.63396206 -70.30566406 283.45214844 C-72.1280406 282.46955932 -73.96450411 281.51901588 -75.8046875 280.5703125 C-84.4337643 275.93866994 -91.47157005 270.32131341 -98.69970703 263.76953125 C-100.58639613 262.08036556 -102.5456266 260.48493928 -104.5 258.875 C-109.353579 254.59971977 -113.22593388 249.52512773 -117.1875 244.4375 C-117.9196875 243.53257812 -118.651875 242.62765625 -119.40625 241.6953125 C-137.15366729 219.13609545 -149.21458625 189.38905079 -149.390625 160.4765625 C-149.39632507 159.72772797 -149.40202515 158.97889343 -149.40789795 158.20736694 C-149.41729745 156.62572619 -149.4238617 155.04406629 -149.42773438 153.46240234 C-149.4373333 151.10346736 -149.46835914 148.74544597 -149.5 146.38671875 C-149.77432798 107.10639663 -132.64486294 71.32704027 -105.9375 43.18359375 C-101.63389955 38.88610637 -97.0244169 35.11521285 -92.1875 31.4375 C-91.31480469 30.76074219 -90.44210938 30.08398438 -89.54296875 29.38671875 C-63.53035472 9.77252223 -32.46093693 -0.26033373 0 0 Z " fill="#FDC917" transform="translate(149.1875,-0.4375)"/>
<path d="M0 0 C0.928125 0.165 1.85625 0.33 2.8125 0.5 C5.85610846 1.22321456 5.85610846 1.22321456 8.125 0.3125 C8.74375 0.209375 9.3625 0.10625 10 0 C13.59670444 2.92905271 15.00145605 5.87530927 16.5625 10.1875 C17.19478516 11.92386719 17.19478516 11.92386719 17.83984375 13.6953125 C18.22269531 14.78585938 18.60554688 15.87640625 19 17 C19.43505859 18.20269531 19.43505859 18.20269531 19.87890625 19.4296875 C22.46078294 26.81034025 24.39743702 34.40966997 25.7265625 42.11328125 C28.0534867 55.1366652 32.56556173 66.83995153 37.72607422 78.9921875 C38.92366756 81.81977469 40.0939381 84.65680875 41.25390625 87.5 C41.93931013 89.16699337 42.62546128 90.83367975 43.3125 92.5 C43.61317383 93.23412109 43.91384766 93.96824219 44.22363281 94.72460938 C45.11028357 96.83660952 46.03956915 98.92055721 47 101 C47.34909424 101.77166504 47.69818848 102.54333008 48.05786133 103.33837891 C51.01036721 109.29273273 54.29711717 112.19373468 60.0625 115.375 C61.47079133 116.19404273 62.87836601 117.01431916 64.28515625 117.8359375 C64.93371582 118.21073242 65.58227539 118.58552734 66.25048828 118.97167969 C68.31948563 120.18778586 70.23792794 121.36150183 72 123 C72 123.99 72 124.98 72 126 C70.62646484 127.36279297 70.62646484 127.36279297 68.7109375 128.7421875 C68.01613281 129.25136719 67.32132813 129.76054687 66.60546875 130.28515625 C65.86941406 130.80980469 65.13335937 131.33445313 64.375 131.875 C62.94419715 132.91252612 61.51449338 133.95156973 60.0859375 134.9921875 C59.03937988 135.74387207 59.03937988 135.74387207 57.97167969 136.51074219 C56.15609057 137.88210098 54.51947177 139.33893562 52.8515625 140.8828125 C50 143 50 143 46.90625 143.515625 C43.51016684 142.91309412 42.09479171 141.99760127 39.5 139.75 C38.64277344 139.02554688 37.78554687 138.30109375 36.90234375 137.5546875 C35.38475539 136.21888294 33.86767112 134.88248786 32.35595703 133.54003906 C30.59656282 131.97911765 28.83176208 130.42472739 27.0625 128.875 C26.46969238 128.35510498 25.87688477 127.83520996 25.26611328 127.29956055 C20.8908754 123.5506385 16.39307639 120.81226692 11.22265625 118.24609375 C8.39769701 116.66232925 6.69445946 114.74341056 5 112 C4.6596875 112.45890625 4.319375 112.9178125 3.96875 113.390625 C1.34850223 116.70774718 -0.83557389 119.17238377 -4.75 120.875 C-9.39219877 122.94505069 -12.64959825 126.10020487 -16.3359375 129.546875 C-30.90586124 142.96316841 -30.90586124 142.96316841 -36.109375 143.0546875 C-41.40904556 142.10453626 -45.19913666 138.45202055 -49.25 135.125 C-50.05179688 134.48691406 -50.85359375 133.84882813 -51.6796875 133.19140625 C-54.93471917 130.58411499 -58.09669215 127.99963149 -61 125 C-59.51509455 120.71772429 -56.42639097 119.09120079 -52.6875 116.9375 C-51.55699219 116.26589844 -50.42648438 115.59429687 -49.26171875 114.90234375 C-47.27816333 113.74546771 -45.28332065 112.60731303 -43.26953125 111.50390625 C-38.82185008 108.55664765 -37.40217215 104.84559624 -35.625 99.9375 C-34.08299386 95.80253711 -32.4875391 91.75078299 -30.625 87.75 C-28.46679208 83.07955637 -26.4223044 78.37113301 -24.4375 73.625 C-24.15664551 72.9659668 -23.87579102 72.30693359 -23.58642578 71.62792969 C-18.60429833 59.61408371 -15.84215993 47.18730425 -13.37695312 34.4609375 C-11.24076367 23.96043127 -7.9103346 7.9103346 0 0 Z " fill="#020201" transform="translate(144,79)"/>
<path d="M0 0 C3.125 1.5625 3.125 1.5625 5 4 C6.30210403 8.86118839 6.29207227 10.41585546 4 15 C6.97 15.33 9.94 15.66 13 16 C13 18.31 13 20.62 13 23 C9.6043303 23.08745946 6.20895227 23.14054444 2.8125 23.1875 C1.85279297 23.21263672 0.89308594 23.23777344 -0.09570312 23.26367188 C-9.11459284 23.35729357 -9.11459284 23.35729357 -13 20 C-15.92274415 16.9682939 -16.45370045 14.73524732 -16.5 10.5625 C-16.36383504 6.79022631 -16.09077283 5.15963498 -14.1875 1.8125 C-9.47968645 -0.86449202 -5.28940542 -0.84185732 0 0 Z " fill="#614C08" transform="translate(28,131)"/>
<path d="M0 0 C7.8739774 0.47243864 17.5949268 2.49448912 23.85546875 7.4765625 C26.5989543 11.12830095 26.61786787 15.63373375 26 20 C23 25.5 23 25.5 20 27 C15.90842645 27.51512617 11.76410454 27.94367269 8.04296875 25.953125 C4.80198634 23.27202033 3.15134678 21.36212098 2.6875 17.1875 C3.06806675 13.30571912 4.36914866 11.79527955 7 9 C4.36 8.01 1.72 7.02 -1 6 C-0.67 4.02 -0.34 2.04 0 0 Z " fill="#614C08" transform="translate(255,175)"/>
<path d="M0 0 C6.3154776 0.09201358 12.09106538 1.54338828 18.125 3.3125 C17.795 4.6325 17.465 5.9525 17.125 7.3125 C15.805 7.3125 14.485 7.3125 13.125 7.3125 C13.18300781 7.90417969 13.24101562 8.49585938 13.30078125 9.10546875 C13.67371614 15.63715705 13.67371614 15.63715705 10.6875 19.3125 C9.841875 19.9725 8.99625 20.6325 8.125 21.3125 C7.795 21.6425 7.465 21.9725 7.125 22.3125 C1.52411345 22.69222112 -2.0316493 22.46630976 -6.875 19.3125 C-9.77798965 16.69980932 -9.87152916 15.34894383 -10.25 11.375 C-10.00123169 4.69557084 -6.82859851 0.02968956 0 0 Z " fill="#604C08" transform="translate(168.875,15.6875)"/>
<path d="M0 0 C3.52475201 2.05087884 7.14360301 4.28720602 9 8 C9.59639589 14.08323808 8.42872436 17.14264048 5 22 C1.85184787 24.4135833 -1.11852805 24.46577663 -5 24 C-9.27423209 21.69191467 -12.4331927 19.14638102 -15 15 C-15.67611948 11.02779807 -15.1986317 9.36179346 -13.25 5.8125 C-9.186229 0.73278625 -6.71660663 -1.007491 0 0 Z " fill="#634E09" transform="translate(219,33)"/>
<path d="M0 0 C4.23737569 0.04842715 6.95405439 0.36604759 10.25 3.25 C12.75802375 7.43598982 13.11725723 11.48008525 12.25 16.25 C9.8125 19.25 9.8125 19.25 7.25 21.25 C6.92 21.58 6.59 21.91 6.25 22.25 C1.05731428 22.78146616 -3.32797489 23.10321507 -7.875 20.375 C-11.1860094 16.62252268 -11.13438201 13.60161592 -11.11328125 8.734375 C-10.56933598 5.0144912 -8.66576392 3.45460199 -5.75 1.25 C-4.11069007 -0.38930993 -2.25256326 0.03998633 0 0 Z " fill="#604C08" transform="translate(140.75,12.75)"/>
<path d="M0 0 C2.71333735 1.23333516 4.88116453 2.88116453 7 5 C7.42902253 9.91725822 7.648252 14.48741199 5.6875 19.0625 C3.693804 21.35155837 2.00539152 22.83530729 -1.05078125 23.3359375 C-6.52484283 23.43048088 -9.71491153 22.74945241 -14 19 C-15.35416319 14.93751043 -15.54273091 11.24777396 -15 7 C-11.22604635 -0.04471349 -7.6292212 -0.97285371 0 0 Z " fill="#604C08" transform="translate(31,102)"/>
<path d="M0 0 C0.66 0.33 1.32 0.66 2 1 C2.67258667 3.33163378 3.33847444 5.6652039 4 8 C4.53625 8.825 5.0725 9.65 5.625 10.5 C7.50686781 13.92157783 7.55897697 16.15703333 7 20 C3.23398868 23.87062274 -1.01657428 26.27125442 -6.4375 26.5625 C-9.12141926 26.49628489 -10.50416685 26.39213728 -12.625 24.71484375 C-15.84880022 20.50279525 -16.98851982 16.14169094 -18 11 C-18.32620148 9.66490394 -18.65764674 8.33104588 -19 7 C-17.77023438 6.90912109 -17.77023438 6.90912109 -16.515625 6.81640625 C-14.89914063 6.69072266 -14.89914063 6.69072266 -13.25 6.5625 C-12.18265625 6.48128906 -11.1153125 6.40007812 -10.015625 6.31640625 C-7.56320038 6.05909227 -5.36078709 5.68187782 -3 5 C-3 3.68 -3 2.36 -3 1 C-2.01 0.67 -1.02 0.34 0 0 Z " fill="#614C08" transform="translate(35,174)"/>
<path d="M0 0 C1.85630217 2.78445326 2.40653175 4.35516142 3.1875 7.5 C4.23490304 10.89242798 4.23490304 10.89242798 6.75 13.25390625 C8.88032042 14.18819496 8.88032042 14.18819496 12 15 C11.67 16.32 11.34 17.64 11 19 C9.35 19.33 7.7 19.66 6 20 C6 20.99 6 21.98 6 23 C2.21434618 26.31244709 -1.06073089 27.8172566 -6.03515625 27.59765625 C-9.8479254 26.43790738 -11.89394515 23.22102506 -14 20 C-15.56935594 16.86128812 -15.35201103 14.46144178 -15 11 C-11.68274372 6.51194738 -9.3189033 5.82738496 -4 5 C-2.69934079 3.06616713 -2.69934079 3.06616713 -2 1 C-1.34 0.67 -0.68 0.34 0 0 Z " fill="#624D09" transform="translate(79,30)"/>
<path d="M0 0 C4.57169316 0.96708894 8.5234755 2.85534138 12.25 5.6875 C14.16996436 8.81498911 14.77409995 11.01880033 14.25 14.6875 C11.00675676 20.30912162 11.00675676 20.30912162 8.25 21.6875 C7.20191959 23.66272846 6.1979589 25.66231509 5.25 27.6875 C-0.5261194 22.93824627 -0.5261194 22.93824627 -2.3125 20.9375 C-4.33536644 19.1784857 -6.1215511 18.9570845 -8.75 18.6875 C-9.41 19.0175 -10.07 19.3475 -10.75 19.6875 C-11.41 19.3575 -12.07 19.0275 -12.75 18.6875 C-12.4375 16.3125 -12.4375 16.3125 -11.75 13.6875 C-10.76 13.0275 -9.77 12.3675 -8.75 11.6875 C-8.564375 10.57375 -8.564375 10.57375 -8.375 9.4375 C-7.301411 4.71370838 -4.79757107 1.19939277 0 0 Z " fill="#614C08" transform="translate(255.75,204.3125)"/>
<path d="M0 0 C0.99 0.33 1.98 0.66 3 1 C3.25 8.625 3.25 8.625 1 12 C0.34 12 -0.32 12 -1 12 C-1 12.66 -1 13.32 -1 14 C1.31 14.33 3.62 14.66 6 15 C6.66 17.31 7.32 19.62 8 22 C6.88625 21.855625 5.7725 21.71125 4.625 21.5625 C3.89925781 21.47484375 3.17351562 21.3871875 2.42578125 21.296875 C0.75470624 21.0923634 -0.91456193 20.87270848 -2.58203125 20.640625 C-8.99417415 19.81331651 -8.99417415 19.81331651 -15 22 C-15 22.66 -15 23.32 -15 24 C-15.66 24 -16.32 24 -17 24 C-17 25.65 -17 27.3 -17 29 C-18.32 29 -19.64 29 -21 29 C-22.42041821 26.15916359 -22.31452272 24.14522722 -22 21 C-20 18.625 -20 18.625 -18 17 C-19.134375 16.62875 -20.26875 16.2575 -21.4375 15.875 C-23.375 15.06640625 -23.375 15.06640625 -25 14 C-25.9375 10.8125 -25.9375 10.8125 -26 8 C-24.2984375 8.2165625 -24.2984375 8.2165625 -22.5625 8.4375 C-21.83417969 8.52257812 -21.10585937 8.60765625 -20.35546875 8.6953125 C-18.78952888 8.89787189 -17.22845659 9.14263828 -15.67578125 9.4296875 C-11.44140455 10.13421877 -9.50840584 10.23604557 -5.5 8.375 C-2.75864756 5.77071518 -2.39478757 4.65178498 -2 1 C-1.34 0.67 -0.68 0.34 0 0 Z " fill="#624D09" transform="translate(277,108)"/>
<path d="M0 0 C1.875 0.3125 1.875 0.3125 4 1 C6.33044673 4.49567009 6.63113697 5.88709073 6 10 C3.59375 12.1171875 3.59375 12.1171875 0.5 13.875 C-1.03140625 14.76832031 -1.03140625 14.76832031 -2.59375 15.6796875 C-3.3878125 16.11539063 -4.181875 16.55109375 -5 17 C-4.34 18.32 -3.68 19.64 -3 21 C1.71048959 18.40358635 6.41303332 15.81136668 11 13 C14 16.625 14 16.625 14 20 C11.6640625 21.82421875 11.6640625 21.82421875 8.625 23.6875 C7.62726562 24.31011719 6.62953125 24.93273437 5.6015625 25.57421875 C3 27 3 27 1 27 C1.33 28.65 1.66 30.3 2 32 C0.02 32.495 0.02 32.495 -2 33 C-7.35693318 25.97072473 -11.97948109 18.87351619 -16 11 C-14.35 10.34 -12.7 9.68 -11 9 C-11 9.66 -11 10.32 -11 11 C-4.51559684 8.15300186 -4.51559684 8.15300186 -0.4375 2.6875 C-0.293125 1.800625 -0.14875 0.91375 0 0 Z " fill="#634E09" transform="translate(44,200)"/>
<path d="M0 0 C3.16115776 1.36983503 3.9927092 1.9890638 6 5 C4.54782324 6.50596108 3.08807139 8.00462104 1.625 9.5 C0.81289062 10.3353125 0.00078125 11.170625 -0.8359375 12.03125 C-3 14 -3 14 -5 14 C-4.67 15.98 -4.34 17.96 -4 20 C2.2191582 18.78055722 4.26429418 17.08471069 8 12 C8.98290968 10.98319689 9.97334787 9.97261781 11 9 C13 11 13 11 13.375 13.75 C12.90128418 17.8555371 11.61185987 19.82341368 9 23 C6.25981924 25.1633006 4.51347849 25.92352448 1.0625 26.4375 C-3.64036474 25.76566218 -6.5185029 23.43211386 -9.875 20.1875 C-11.55848085 16.91406502 -11.40415069 14.64498171 -11 11 C-9.19280365 8.6793956 -7.65515066 6.97671859 -5.5 5.0625 C-4.97535156 4.56943359 -4.45070312 4.07636719 -3.91015625 3.56835938 C-2.62212635 2.36229501 -1.31305737 1.17876741 0 0 Z " fill="#634E09" transform="translate(238,49)"/>
<path d="M0 0 C0.66 1.65 1.32 3.3 2 5 C1.43410156 5.13277344 0.86820313 5.26554687 0.28515625 5.40234375 C-0.81505859 5.66724609 -0.81505859 5.66724609 -1.9375 5.9375 C-2.66839844 6.11152344 -3.39929688 6.28554688 -4.15234375 6.46484375 C-5.99969898 6.83887569 -5.99969898 6.83887569 -7 8 C-6.85841338 12.3409369 -6.85841338 12.3409369 -5 16 C-2.22240429 16.20356972 0.55300161 16.31931009 3.3359375 16.42578125 C6 17 6 17 7.828125 18.8828125 C9.28573992 21.5162368 9.45653923 23.03249503 9 26 C7.625 27.8125 7.625 27.8125 6 29 C5.34 29 4.68 29 4 29 C3.06576355 25.98968256 2.95550089 25.13349732 4 22 C3.505 22.165 3.01 22.33 2.5 22.5 C-2.59372034 23.51874407 -6.42773651 23.95702995 -10.875 21.25 C-13.41531557 18.5602541 -14.89510464 16.52770685 -15.15234375 12.78125 C-14.5703129 6.60114063 -14.5703129 6.60114063 -11.6875 3.5625 C-10.800625 3.046875 -9.91375 2.53125 -9 2 C-8.01 1.38125 -8.01 1.38125 -7 0.75 C-4.57226299 -0.16040138 -2.57166137 -0.14287008 0 0 Z " fill="#644F09" transform="translate(105,20)"/>
<path d="M0 0 C4.38290941 0.742866 6.96131717 2.1905038 9.6875 5.625 C11.44435355 8.85122197 12.95346515 11.90464316 12.37890625 15.62109375 C11.64957182 17.73492743 10.74267561 19.65533886 9.6875 21.625 C2.00903678 21.05934519 -5.65593208 20.4373221 -13.3125 19.625 C-12.73905063 16.75775314 -12.4510485 15.7635485 -10.3125 13.625 C-5.30722983 13.03437812 -0.2266272 13.61697391 4.6875 14.625 C4.36786511 11.65384844 4.36786511 11.65384844 2.6875 8.625 C-0.20653604 7.18062735 -3.17085465 6.36192916 -6.3125 5.625 C-4.71162826 1.85824297 -4.12972522 0.77919344 0 0 Z " fill="#624D09" transform="translate(36.3125,73.375)"/>
<path d="M0 0 C4.56630558 2.98566134 6.97897118 5.94742795 9 11 C9 11.66 9 12.32 9 13 C7.35 13.66 5.7 14.32 4 15 C3.34 13.02 2.68 11.04 2 9 C-3.28199593 7.80011955 -3.28199593 7.80011955 -8 10 C-8.33343551 12.54207971 -8.33343551 12.54207971 -8 15 C-7.67 15.33 -7.34 15.66 -7 16 C-6.6875 18.875 -6.6875 18.875 -7 22 C-9.27365095 24.62344341 -10.67535797 24.96104296 -14.125 25.375 C-15.07375 25.25125 -16.0225 25.1275 -17 25 C-17.66 24.01 -18.32 23.02 -19 22 C-17.1875 20.9375 -17.1875 20.9375 -15 20 C-14.01 20.33 -13.02 20.66 -12 21 C-12.495 20.01 -12.99 19.02 -13.5 18 C-15.30511198 13.69214822 -15.6762765 10.65879367 -15 6 C-10.88220334 0.89997662 -6.37410527 -0.63741053 0 0 Z " fill="#624D09" transform="translate(260,74)"/>
<path d="M0 0 C0.99 0.33 1.98 0.66 3 1 C3.6875 3.0625 3.6875 3.0625 4 5 C6.23110851 3.96412819 8.00637397 2.99447589 9.875 1.375 C12.89993975 -0.58231396 14.44819419 -0.62678926 18 0 C21.21746323 2.15596409 24.24971091 4.49942182 26 8 C26.41859602 12.35339864 26.24276247 14.55493548 24.125 18.4375 C23.42375 19.283125 22.7225 20.12875 22 21 C21.34 21 20.68 21 20 21 C20 21.66 20 22.32 20 23 C18.68 23.33 17.36 23.66 16 24 C15.01 22.68 14.02 21.36 13 20 C14.2065625 19.443125 14.2065625 19.443125 15.4375 18.875 C18.25799346 17.1908205 18.25799346 17.1908205 19 14 C19.25724788 11.06431197 19.25724788 11.06431197 17.875 9.125 C15.39049995 7.63429997 13.85510892 7.64311138 11 8 C10.01 8.66 9.02 9.32 8 10 C4.87973093 10.32502803 2.85252465 10.51151479 0.125 8.875 C-1.48515263 6.19141229 -1.26647742 4.06449028 -1 1 C-0.67 0.67 -0.34 0.34 0 0 Z " fill="#604C08" transform="translate(225,228)"/>
<path d="M0 0 C1.32 1.32 2.64 2.64 4 4 C2.68 5.32 1.36 6.64 0 8 C1.41154766 11.41124018 3.06221223 12.8456223 6 15 C6 15.66 6 16.32 6 17 C7.98 16.67 9.96 16.34 12 16 C12.33 16.99 12.66 17.98 13 19 C11.375 21.6875 11.375 21.6875 9 24 C5.61769138 24.56840794 4.36119596 24.25725881 1.54296875 22.25 C0.76566406 21.5075 -0.01164062 20.765 -0.8125 20 C-1.60269531 19.2575 -2.39289062 18.515 -3.20703125 17.75 C-3.79871094 17.1725 -4.39039063 16.595 -5 16 C-7.49361571 17.20381448 -9.68143083 18.45428722 -12 20 C-12.99 19.34 -13.98 18.68 -15 18 C-13.66465724 15.05886531 -12.17535119 12.89154831 -9.9609375 10.546875 C-9.38085938 9.928125 -8.80078125 9.309375 -8.203125 8.671875 C-7.59984375 8.03765625 -6.9965625 7.4034375 -6.375 6.75 C-5.76398437 6.1003125 -5.15296875 5.450625 -4.5234375 4.78125 C-3.01971926 3.18354937 -1.51184263 1.59000851 0 0 Z " fill="#624D09" transform="translate(54,48)"/>
<path d="M0 0 C3.5 -0.3125 3.5 -0.3125 7 0 C7.66 0.66 8.32 1.32 9 2 C9.66 1.34 10.32 0.68 11 0 C13.9375 -0.375 13.9375 -0.375 17 0 C19.28331713 2.26207697 19.95593979 3.5793719 20.29296875 6.796875 C20.25816406 7.77140625 20.22335937 8.7459375 20.1875 9.75 C20.16042969 10.73484375 20.13335937 11.7196875 20.10546875 12.734375 C20.07066406 13.48203125 20.03585937 14.2296875 20 15 C18.35 15 16.7 15 15 15 C15 12.03 15 9.06 15 6 C14.01 6.33 13.02 6.66 12 7 C11.67 8.65 11.34 10.3 11 12 C9.68 12 8.36 12 7 12 C6.67 10.35 6.34 8.7 6 7 C5.01 7 4.02 7 3 7 C3 10.3 3 13.6 3 17 C1.35 16.67 -0.3 16.34 -2 16 C-2.05402274 13.89611431 -2.09280256 11.79183286 -2.125 9.6875 C-2.14820313 8.51574219 -2.17140625 7.34398437 -2.1953125 6.13671875 C-2 3 -2 3 0 0 Z " fill="#634E09" transform="translate(267,139)"/>
<path d="M0 0 C3.61723548 0 5.68629863 1.30301581 8.3125 3.625 C10.72521828 6.20561362 10.99792734 6.98641255 11.5625 10.6875 C11 14 11 14 9.75 15.9375 C8 17 8 17 4 17 C3.8453125 18.175625 3.8453125 18.175625 3.6875 19.375 C3 22 3 22 0 24 C-3.21846693 23.84087325 -4.62841434 23.33996135 -7.01953125 21.15234375 C-7.61121094 20.42144531 -8.20289063 19.69054687 -8.8125 18.9375 C-9.41707031 18.20402344 -10.02164063 17.47054687 -10.64453125 16.71484375 C-11.09183594 16.14894531 -11.53914063 15.58304688 -12 15 C-11.01 14.01 -10.02 13.02 -9 12 C-8.236875 12.804375 -7.47375 13.60875 -6.6875 14.4375 C-4.20569102 17.16799024 -4.20569102 17.16799024 -1 18 C-1.7734375 16.6078125 -1.7734375 16.6078125 -2.5625 15.1875 C-4 12 -4 12 -3 9 C-0.07120629 9.62759865 2.36095629 10.58622659 5 12 C3.76075855 7.04303419 2.21422242 4.88341534 -2 2 C-1.34 1.34 -0.68 0.68 0 0 Z " fill="#634E09" transform="translate(62,226)"/>
<path d="M0 0 C2.88651931 -0.08366723 5.51594815 -0.00171055 8.375 0.25 C9.52742188 0.32927734 9.52742188 0.32927734 10.703125 0.41015625 C14.25346309 0.67428175 17.55572392 1.06651361 21 2 C21 3.98 21 5.96 21 8 C18.95840905 8.0272616 16.91671037 8.04651345 14.875 8.0625 C13.73804688 8.07410156 12.60109375 8.08570313 11.4296875 8.09765625 C8.1870844 8.005327 5.18067388 7.61389906 2 7 C2 7.99 2 8.98 2 10 C0.68 10 -0.64 10 -2 10 C-2.25 3.375 -2.25 3.375 0 0 Z " fill="#644F09" transform="translate(265,162)"/>
<path d="M0 0 C1.32 0 2.64 0 4 0 C5.34573929 7.46273607 5.34573929 7.46273607 3.9140625 9.6875 C1.24363286 11.51865175 -1.11617836 11.75616248 -4.3125 12.1875 C-5.42238281 12.34605469 -6.53226563 12.50460938 -7.67578125 12.66796875 C-10.81185735 12.98120784 -13.85112057 13.06192955 -17 13 C-17 10.69 -17 8.38 -17 6 C-8.585 5.01 -8.585 5.01 0 4 C0 2.68 0 1.36 0 0 Z " fill="#624D08" transform="translate(31,159)"/>
<path d="M0 0 C1.98 0.66 3.96 1.32 6 2 C5.39596331 5.60494239 4.37703268 8.61307103 2.875 11.9375 C1.17645411 16.02500791 0.62485161 18.64536343 2 23 C-4.75 22.25 -4.75 22.25 -7 20 C-6.84410678 12.67301851 -3.21739168 6.43478336 0 0 Z " fill="#604C08" transform="translate(196,23)"/>
<path d="M0 0 C4.13830989 0.30096799 6.51847024 0.67898016 10 3 C10.3125 5.5 10.3125 5.5 10 8 C8 10 8 10 5.125 10.3125 C1.67397791 9.96739779 0.30780656 9.57409193 -2 7 C-2.375 4.4375 -2.375 4.4375 -2 2 C-1.34 1.34 -0.68 0.68 0 0 Z " fill="#F5C217" transform="translate(23,108)"/>
<path d="M0 0 C1.2684375 0.12375 1.2684375 0.12375 2.5625 0.25 C4.5625 3.25 4.5625 3.25 4.4375 5.6875 C3.35882837 8.84646691 2.26907892 10.29524856 -0.4375 12.25 C-3.1875 12 -3.1875 12 -5.4375 11.25 C-6.48184887 7.92707176 -6.6537055 6.68241099 -5.0625 3.5 C-2.7375 0.28076923 -2.7375 0.28076923 0 0 Z " fill="#F4C117" transform="translate(217.4375,38.75)"/>
<path d="M0 0 C4.875 0.875 4.875 0.875 6 2 C6.46412214 9.19389313 6.46412214 9.19389313 4.8125 12.0625 C2.26271335 13.38135516 0.68253902 12.7975116 -2 12 C-3.35384615 5.72307692 -3.35384615 5.72307692 -1.5625 2.0625 C-1.046875 1.381875 -0.53125 0.70125 0 0 Z " fill="#F4C217" transform="translate(169,20)"/>
<path d="M0 0 C1.2375 0.1546875 1.2375 0.1546875 2.5 0.3125 C4.94897847 3.98596771 4.81537716 5.97606399 4.5 10.3125 C2.5 12.3125 2.5 12.3125 0 12.5625 C-2.5 12.3125 -2.5 12.3125 -4.5 10.3125 C-4.765625 8.4375 -4.765625 8.4375 -4.75 6.3125 C-4.75515625 5.61125 -4.7603125 4.91 -4.765625 4.1875 C-4.32075052 1.04720952 -3.01953045 0.37744131 0 0 Z " fill="#F7C417" transform="translate(141.5,17.6875)"/>
<path d="M0 0 C2.0078125 0.23046875 2.0078125 0.23046875 5.0078125 2.23046875 C4.2578125 6.98046875 4.2578125 6.98046875 2.0078125 9.23046875 C-1.4921875 9.48046875 -1.4921875 9.48046875 -4.9921875 9.23046875 C-6.9921875 7.23046875 -6.9921875 7.23046875 -7.1796875 4.16796875 C-6.8500939 -0.99566425 -4.68831612 0.09515033 0 0 Z " fill="#F4C117" transform="translate(23.9921875,137.76953125)"/>
<path d="M0 0 C2.375 1.1875 2.375 1.1875 4 3 C4.3125 5.625 4.3125 5.625 4 8 C2.12356239 9.87643761 -0.49805701 9.17984987 -2.9921875 9.23046875 C-5 9 -5 9 -8 7 C-8.1875 3.875 -8.1875 3.875 -8 1 C-5.19084526 -0.40457737 -3.11189466 -0.24895157 0 0 Z " fill="#F5C217" transform="translate(272,186)"/>
<path d="M0 0 C0.66 0.33 1.32 0.66 2 1 C1.8125 2.8125 1.8125 2.8125 1 5 C-1.60957295 7.02966785 -3.39541344 7.92969924 -6.6875 8.3125 C-9 8 -9 8 -11 6 C-10.8125 4 -10.8125 4 -10 2 C-6.33134759 -0.44576827 -4.32799657 -0.23607254 0 0 Z " fill="#ECBB16" transform="translate(35,186)"/>
<path d="M0 0 C2.3125 0.1875 2.3125 0.1875 5 1 C7.68448204 4.33246046 8.36325349 6.76204266 8 11 C4.53172778 10.71097731 3.19346446 10.18328212 0.625 7.75 C-1 5 -1 5 -0.75 2.1875 C-0.5025 1.465625 -0.255 0.74375 0 0 Z " fill="#F3C017" transform="translate(71,40)"/>
<path d="M0 0 C4.55737263 0.43820891 7.57653445 0.85041169 11 4 C10.67 5.65 10.34 7.3 10 9 C6.10240081 8.7342546 4.43693229 8.43693229 1.625 5.625 C0 3 0 3 0 0 Z " fill="#F6C317" transform="translate(253,212)"/>
<path d="M0 0 C1.65 0.33 3.3 0.66 5 1 C4.67 2.98 4.34 4.96 4 7 C3.34 7 2.68 7 2 7 C2 7.99 2 8.98 2 10 C2.66 10 3.32 10 4 10 C4 10.99 4 11.98 4 13 C2.68 12.67 1.36 12.34 0 12 C-1.08661033 8.08820283 -0.87838535 6.52197254 1 3 C0.67 2.01 0.34 1.02 0 0 Z " fill="#6E570A" transform="translate(290,162)"/>
<path d="M0 0 C3.44137432 1.5294997 6.2222133 3.45369552 9 6 C9 6.99 9 7.98 9 9 C5.0873016 7.6957672 2.62689759 6.21065261 0 3 C0 2.01 0 1.02 0 0 Z " fill="#725A0A" transform="translate(3,164)"/>
<path d="M0 0 C0.928125 0.20625 1.85625 0.4125 2.8125 0.625 C0.68630903 2.96381007 -1.18526492 4.56538762 -4.1875 5.625 C-6.9375 5.25 -6.9375 5.25 -9.1875 4.625 C-4.29086538 -0.50480769 -4.29086538 -0.50480769 0 0 Z " fill="#745C0B" transform="translate(206.1875,16.375)"/>
<path d="M0 0 C1.67542976 0.28604898 3.34385343 0.61781233 5 1 C5 1.66 5 2.32 5 3 C4.01 3.33 3.02 3.66 2 4 C1.67 4.99 1.34 5.98 1 7 C0.01 6.34 -0.98 5.68 -2 5 C-1.125 1.125 -1.125 1.125 0 0 Z " fill="#71590A" transform="translate(49,247)"/>
<path d="M0 0 C1.65 0 3.3 0 5 0 C5 0.99 5 1.98 5 3 C4.34 3 3.68 3 3 3 C3 3.66 3 4.32 3 5 C3.66 5 4.32 5 5 5 C5 5.66 5 6.32 5 7 C1.125 6.125 1.125 6.125 0 5 C-0.04063832 3.33382885 -0.042721 1.66611905 0 0 Z " fill="#6F570A" transform="translate(138,4)"/>
</svg>
